<?xml version="1.0" encoding="UTF-8"?><svg id="Layer_2" xmlns="http://www.w3.org/2000/svg" viewBox="0 0 17 17"><defs><style>.cls-1{fill:none;}.cls-2,.cls-3{fill:#787878;}.cls-3{fill-rule:evenodd;}</style></defs><g id="Layer_5"><g><rect class="cls-1" x="0" y="0" width="17" height="17"/><polyline class="cls-1" points="0 17 17 17 17 0"/><rect class="cls-1" x=".03" y="1.12" width="15.88" height="15.88"/><g><path class="cls-3" d="M10.25,11.46s.07,0,.11,0c.37,.02,.78,.19,1.02,.49,.32,.4,.82,.67,1.44,.84,1.13,.32,2.48,.17,2.69-.6,.22-.77-.82-1.74-1.95-2.05-1.13-.32-2.23,.05-2.44,.83-.02,.06-.03,.12-.03,.18-.21-.23-.91-.57-1.07-.62-.01,0-.07-.02-.17-.05l-7.37-1.69s.75,.99,1.3,1.3c.52,.3,4.79,1.2,5.43,1.38,.54,.11,.73,.21,1.05-.02Zm3.21-.97c.85,.24,1.77,1,1.61,1.58-.16,.58-1.29,.54-2.14,.3-.85-.24-1.47-.68-1.31-1.26,.16-.58,.98-.86,1.83-.62Z"/><path class="cls-3" d="M10.13,11.94s.02,.07,.03,.11c.11,.35,.36,.72,.71,.88,.47,.22,.83,.64,1.14,1.21,.56,1.03,.73,2.38,.02,2.76-.7,.38-1.88-.41-2.44-1.44-.56-1.03-.45-2.18,.25-2.57,.05-.03,.11-.05,.17-.07-.28-.16-.76-.76-.84-.9,0-.01-.04-.06-.08-.15l-3.31-6.8s1.13,.51,1.56,.98c.41,.44,2.25,4.4,2.57,4.97,.23,.5,.37,.66,.22,1.03Zm-.22,3.34c.42,.77,1.38,1.5,1.9,1.21,.53-.29,.23-1.37-.19-2.15-.42-.78-.99-1.28-1.52-.99-.53,.29-.61,1.15-.19,1.93Z"/></g><g><g><rect class="cls-2" x=".03" y="2.89" width="1.05" height="3.74"/><rect class="cls-2" x=".03" y="13.26" width="1.05" height="3.74"/><rect class="cls-2" x=".03" y="8.08" width="1.05" height="3.74"/></g><g><rect class="cls-2" x="13.14" y="2.89" width="1.05" height="3.49"/><rect class="cls-2" x="13.15" y="7.67" width="1.05" height="2.36"/></g><g><rect class="cls-2" x="11.8" y="1.55" width="1.06" height="3.74" transform="translate(15.75 -8.91) rotate(90)"/><rect class="cls-2" x="1.37" y="1.55" width="1.06" height="3.74" transform="translate(5.32 1.53) rotate(90)"/><rect class="cls-2" x="6.55" y="1.6" width="1.06" height="3.74" transform="translate(10.55 -3.61) rotate(90)"/></g><g><rect class="cls-2" x="1.37" y="14.6" width="1.06" height="3.74" transform="translate(18.37 14.57) rotate(90)"/><rect class="cls-2" x="6.18" y="14.98" width="1.06" height="2.99" transform="translate(23.18 9.77) rotate(90)"/></g></g></g></g></svg>