<?xml version="1.0" encoding="UTF-8"?><svg id="Layer_2" xmlns="http://www.w3.org/2000/svg" viewBox="0 0 17 17"><defs><style>.cls-1{fill:none;}.cls-2{fill:#787878;}</style></defs><g id="Layer_5"><g><rect class="cls-1" width="17" height="17"/><rect class="cls-1" y="1" width="16" height="16"/><g><path class="cls-2" d="M6.51,4.11c.85,0,1.64,.34,2.22,.97l.17,.18,.23-.08c.26-.09,.54-.14,.8-.14,.63,0,1.23,.25,1.68,.7,.46,.46,.71,1.08,.71,1.72l-.03,.34,.33,.06c1.41,.28,2.44,1.53,2.44,2.98,0,1.53-1.13,2.82-2.6,3.01l-8.4,.03h-.2c-1.63-.07-2.91-1.41-2.91-3.04,0-1.38,.93-2.59,2.27-2.94l.31-.08-.04-.32c-.01-.12-.02-.24-.02-.36,0-1.68,1.36-3.04,3.04-3.04m0-.94c-2.19,0-3.97,1.78-3.98,3.97C1.03,7.74,.01,9.2,.01,10.85,.01,12.99,1.68,14.73,3.82,14.82h.2s8.44-.02,8.44-.02h.06s.06,0,.06,0c1.95-.25,3.42-1.94,3.42-3.94,0-1.74-1.14-3.27-2.76-3.79-.09-.75-.42-1.45-.96-1.99-.63-.63-1.46-.97-2.35-.97-.26,0-.52,.03-.77,.09-.73-.66-1.66-1.01-2.65-1.01h0Z"/><g><rect class="cls-2" x="4.8" y="6.71" width="1.41" height="1.41"/><rect class="cls-2" x="7.18" y="6.71" width="1.41" height="1.41"/><rect class="cls-2" x="9.56" y="6.71" width="1.41" height="1.41"/><rect class="cls-2" x="4.8" y="9" width="1.41" height="1.41"/><rect class="cls-2" x="7.18" y="9" width="1.41" height="1.41"/><rect class="cls-2" x="9.56" y="9" width="1.41" height="1.41"/><rect class="cls-2" x="4.8" y="11.28" width="1.41" height="1.41"/><rect class="cls-2" x="7.18" y="11.28" width="1.41" height="1.41"/><rect class="cls-2" x="9.56" y="11.28" width="1.41" height="1.41"/></g></g></g></g></svg>