<?xml version="1.0" encoding="UTF-8"?><svg id="Layer_2" xmlns="http://www.w3.org/2000/svg" viewBox="0 0 17 17"><defs><style>.cls-1{fill:none;}.cls-2{fill:#787878;}</style></defs><g id="Layer_5"><g><rect class="cls-1" width="17" height="17"/><rect class="cls-1" y="1" width="16" height="16"/><g><path class="cls-2" d="M4.38,5.96H13.01v-.69c-.04-.29-.29-.52-.58-.52H6.11l-.31-.73c-.11-.26-.36-.42-.64-.42H2.82c-.55,0-1,.45-1,1v7.56l1.6-5.48c.12-.43,.52-.72,.96-.72Z"/><path class="cls-2" d="M13.91,6.93c-.09-.03-.19-.04-.28-.04H5.07c-.44,0-.83,.29-.96,.72l-1.62,5.52c-.16,.53,.15,1.09,.68,1.24,.09,.03,.19,.04,.28,.04H12.01c.44,0,.84-.29,.96-.72l1.62-5.52c.16-.53-.15-1.09-.68-1.24Z"/></g></g></g></svg>