<?xml version="1.0" encoding="UTF-8"?><svg id="Layer_2" xmlns="http://www.w3.org/2000/svg" viewBox="0 0 17 17"><defs><style>.cls-1,.cls-2{fill:none;}.cls-2{stroke:#808184;stroke-linejoin:round;}.cls-3{fill:#808184;}</style></defs><g id="Layer_5"><g><rect class="cls-1" width="17" height="17"/><g><rect class="cls-1" x=".04" y="1.03" width="15.88" height="15.88"/><path class="cls-2" d="M11.34,14.18s6.87-5.27,3.78-9.06C12,1.29,5.41,1.36,2.25,1.82c0,0,7.3,.56,8.38,3.3,.2,.51-.16,1.04-.76,1.52"/><path class="cls-3" d="M7.23,4.63L0,6.34v7.41l4.21,3.24,7.39-2.08V7.65l-4.37-3.02Zm3.08,3.06l-5.93,1.55L1.26,6.83l5.82-1.38,3.23,2.23Zm-5.63,8.38v-6.12l6.15-1.61v5.99l-6.15,1.74Z"/></g></g></g></svg>