<?xml version="1.0" encoding="UTF-8"?><svg id="Layer_2" xmlns="http://www.w3.org/2000/svg" viewBox="0 0 17 17"><defs><style>.cls-1{fill:none;}.cls-2,.cls-3{fill:#787878;}.cls-3{fill-rule:evenodd;}</style></defs><g id="Layer_5"><g><rect class="cls-1" width="17" height="17"/><g><rect class="cls-1" y="1" width="16" height="16"/><g><rect class="cls-2" x="12.18" y="12.85" width="3.73" height="1.6"/><rect class="cls-2" x="6.13" y="12.85" width="3.73" height="1.6"/><rect class="cls-2" x=".09" y="12.85" width="3.73" height="1.6"/><g><path class="cls-3" d="M10.87,6.29c0-1.06-.58-1.99-1.44-2.49-.48-.07-.98-.09-1.51-.05-.59,.04-1.16,.14-1.69,.28-.67,.52-1.1,1.34-1.1,2.26,0,1.58,1.28,2.87,2.87,2.87s2.87-1.28,2.87-2.87Z"/><path class="cls-2" d="M8,10.79C3.84,10.79,.54,7.61,.4,7.48l-.32-.31,.32-.31c.14-.14,3.44-3.31,7.6-3.31s7.46,3.18,7.6,3.31l.32,.31-.32,.31c-.14,.14-3.44,3.31-7.6,3.31ZM1.35,7.17c.92,.78,3.58,2.76,6.65,2.76s5.73-1.98,6.65-2.76c-.92-.78-3.58-2.76-6.65-2.76S2.28,6.39,1.35,7.17Z"/></g></g></g></g></g></svg>