<?xml version="1.0" encoding="UTF-8"?><svg id="Layer_2" xmlns="http://www.w3.org/2000/svg" viewBox="0 0 17 17"><defs><style>.cls-1{fill:none;}.cls-2{fill:#787878;}</style></defs><g id="Layer_5"><g><rect class="cls-1" width="17" height="17"/><g><rect class="cls-1" y="1" width="16" height="16"/><path class="cls-2" d="M2.42,7.92L.22,15.22H15.78L2.42,7.92Z"/><g><path class="cls-2" d="M5.5,8.95l-.95-.52,1.97-3.57c-.52,.13-1.06,.15-1.62,.04l.47-.86c.29,.06,.64,.05,1.06-.01,.41-.07,.76-.22,1.03-.46l.77,.42-2.74,4.96Z"/><path class="cls-2" d="M10.57,5.27c.48,.26,.76,.64,.84,1.13,.1,.58-.11,1.34-.63,2.28-.52,.93-1.05,1.52-1.6,1.75-.45,.19-.92,.15-1.4-.11-.48-.27-.77-.66-.86-1.2-.09-.53,.13-1.27,.65-2.22,.51-.93,1.05-1.51,1.6-1.74,.45-.19,.92-.15,1.4,.11Zm-.43,.79c-.11-.06-.24-.08-.37-.06s-.27,.12-.43,.28c-.2,.21-.46,.6-.78,1.18-.32,.58-.51,.99-.57,1.24-.06,.25-.07,.43-.02,.55,.05,.12,.13,.21,.25,.28,.11,.06,.24,.08,.37,.06,.13-.02,.27-.12,.43-.28,.2-.21,.46-.6,.78-1.18,.32-.58,.51-.99,.57-1.24,.06-.25,.07-.43,.02-.56-.05-.12-.13-.21-.24-.28Z"/><path class="cls-2" d="M14.34,7.93c-.14,.25-.35,.42-.63,.5-.28,.08-.54,.05-.8-.09-.25-.14-.42-.35-.5-.63-.08-.28-.05-.54,.09-.8,.14-.25,.35-.42,.63-.5,.28-.08,.54-.05,.8,.09,.25,.14,.42,.35,.5,.63,.08,.28,.05,.54-.09,.8Zm-.5-.28c.06-.12,.08-.24,.04-.36-.04-.13-.11-.22-.23-.28-.12-.06-.24-.08-.36-.04-.13,.04-.22,.11-.28,.23-.06,.12-.08,.24-.04,.36,.04,.13,.11,.22,.23,.28,.12,.06,.24,.08,.36,.04,.13-.04,.22-.11,.28-.23Z"/></g></g></g></g></svg>