<?xml version="1.0" encoding="UTF-8"?><svg id="Layer_2" xmlns="http://www.w3.org/2000/svg" viewBox="0 0 17 17"><defs><style>.cls-1{fill:none;}.cls-2{fill:#787878;}</style></defs><g id="Layer_5"><g><rect class="cls-1" width="17" height="17"/><g><rect class="cls-1" y="1" width="16" height="16"/><path class="cls-2" d="M13.32,3.68C10.73,1.1,6.6,.78,3.65,2.88c-.89-.5-1.97,.09-1.97,1.12,0,.24,.07,.47,.19,.67C-.22,7.61,.1,11.73,2.68,14.31c1.45,1.45,3.4,2.19,5.32,2.19,1.5,0,3.03-.46,4.33-1.37,.2,.12,.43,.19,.67,.19,.73,0,1.32-.59,1.32-1.32,0-.24-.07-.47-.19-.67,2.08-2.95,1.76-7.07-.82-9.65ZM7.56,15.61c-1.55-.1-3.09-.75-4.25-1.92-1.17-1.17-1.81-2.71-1.92-4.25h1.77c.06,.67,.27,1.35,.61,1.96-.35,.51-.3,1.22,.16,1.68,.46,.46,1.17,.5,1.67,.16,.61,.34,1.29,.54,1.96,.6v1.78h0Zm0-2.66c-.49-.05-.99-.2-1.44-.44,.15-.5,0-.98-.33-1.31-.34-.34-.85-.43-1.29-.31-.24-.45-.4-.97-.45-1.46h2.71c.13,.37,.43,.67,.8,.8v2.71h0Zm0-5.19c-.37,.13-.67,.43-.8,.8h-2.72c.2-1.78,1.58-3.29,3.52-3.5v2.7h0Zm0-3.58c-2.43,.22-4.19,2.12-4.4,4.38H1.4c.08-1.16,.46-2.33,1.15-3.33,.14,.05,.29,.08,.45,.08,.73,0,1.32-.59,1.32-1.32,0-.16-.03-.31-.08-.45,1-.69,2.17-1.07,3.33-1.15v1.78h0Zm.88,.88c.72,.08,1.45,.36,2.05,.84l-1.92,1.92s-.08-.04-.13-.05v-2.7Zm0-.88v-1.79c1.41,.09,2.81,.64,3.93,1.62l-1.26,1.26c-.77-.64-1.72-1.01-2.67-1.09Zm0,6.06c.37-.13,.67-.43,.8-.8h2.7c-.22,1.94-1.73,3.32-3.5,3.52v-2.72Zm5.01,2.54c-.9-.31-1.76,.33-1.76,1.22,0,.16,.03,.31,.08,.45-1,.69-2.17,1.07-3.33,1.15v-1.78c2.37-.22,4.17-2.03,4.38-4.38h1.78c-.08,1.16-.46,2.34-1.16,3.34Z"/></g></g></g></svg>