<?xml version="1.0" encoding="UTF-8"?><svg id="Layer_2" xmlns="http://www.w3.org/2000/svg" viewBox="0 0 17 17"><defs><style>.cls-1,.cls-2{fill:none;}.cls-3{fill:#787878;}.cls-2{stroke:#787878;stroke-miterlimit:10;}</style></defs><g id="Layer_5"><g><rect class="cls-1" width="17" height="17"/><g><rect class="cls-1" y="1" width="16" height="16"/><g><path class="cls-2" d="M9.63,4.6s-.71,3.52-3.78,2.85c-3.23-.7-4.61,2.15-4.67,3.2"/><circle class="cls-3" cx="9.63" cy="4.6" r="1.21"/><circle class="cls-3" cx="1.82" cy="10.65" r="1.14"/><path class="cls-3" d="M11.64,1.14c.4-.08,1.02-.14,1.64-.14,.89,0,1.46,.15,1.88,.5,.37,.27,.58,.68,.58,1.22,0,.67-.45,1.26-1.17,1.52v.02c.66,.16,1.42,.7,1.42,1.74,0,.58-.22,1.03-.59,1.37-.47,.44-1.25,.65-2.37,.65-.62,0-1.09-.04-1.39-.08V1.14Zm.9,2.84h.81c.93,0,1.49-.5,1.49-1.17,0-.81-.61-1.13-1.51-1.13-.41,0-.65,.03-.79,.06V3.98Zm0,3.3c.18,.03,.42,.04,.75,.04,.92,0,1.78-.34,1.78-1.33s-.82-1.34-1.79-1.34h-.74v2.63Z"/><path class="cls-3" d="M3.98,14.68l-.71,2.17h-.93l2.35-6.9h1.06l2.35,6.9h-.95l-.74-2.17H3.98Zm2.26-.7l-.68-1.99c-.15-.45-.26-.86-.36-1.26h-.03c-.09,.41-.2,.83-.34,1.25l-.68,2h2.08Z"/></g></g></g></g></svg>