<?xml version="1.0" encoding="UTF-8"?><svg id="Layer_2" xmlns="http://www.w3.org/2000/svg" viewBox="0 0 17 17"><defs><style>.cls-1{fill:none;}.cls-2{fill:#787878;}</style></defs><g id="Layer_5"><g><rect class="cls-1" width="17" height="17"/><rect class="cls-1" x="0" y="1" width="16" height="16"/><g><path class="cls-2" d="M15.14,9.1c-1.13-.4-2.62-1.51-4.53-3.38-1.09-1.07-3.13-3.07-5.06-3.47-.51-.1-1.15-.09-1.79-.02C2.09,3.28,.84,4.93,.31,6.87c1.78-.73,4.87-1.02,8.96,1.38,3.09,1.82,5.84,2.79,6.43,2.92,.16-.58,.26-1.18,.29-1.8-.23-.07-.5-.16-.85-.28Z"/><path class="cls-2" d="M9.79,14.63c-1.53,0-3.02-.35-4.82-1.39-2.34-1.35-3.47-1.13-3.76-1.03-.19,.06-.31,.16-.4,.26,1.29,2.68,4.03,4.53,7.2,4.53,2.59,0,4.88-1.24,6.34-3.16-.77,.24-1.63,.48-2.49,.61-.71,.11-1.39,.18-2.07,.18Z"/><path class="cls-2" d="M15.51,8.06c.16,.06,.3,.1,.43,.15,.01,0,.02,0,.03,.01h0s0-.01,0-.02c-.4-4.04-3.81-7.19-7.96-7.19-.67,0-1.31,.1-1.92,.25,1.86,.5,3.64,2.05,5.3,3.67,1.77,1.74,3.16,2.79,4.12,3.13Z"/><path class="cls-2" d="M.05,8.25c-.02,.25-.04,.5-.04,.75,0,.88,.15,1.72,.42,2.51,.14-.09,.28-.18,.46-.24,.63-.21,2.05-.35,4.58,1.11,2.34,1.35,4.12,1.42,6.24,1.09,1.24-.19,2.52-.61,3.47-.96,.05-.1,.11-.18,.15-.28-.87-.24-3.59-1.23-6.62-3.02C3.97,6.42,1.09,7.59,.05,8.25Z"/></g></g></g></svg>