<?xml version="1.0" encoding="UTF-8"?><svg id="Layer_2" xmlns="http://www.w3.org/2000/svg" viewBox="0 0 17 17"><defs><style>.cls-1{fill:none;}.cls-2{fill:#787878;}</style></defs><g id="Layer_5"><g><rect class="cls-1" x="0" width="17" height="17"/><g><rect class="cls-1" x="0" y="1" width="16" height="16"/><path class="cls-2" d="M15.39,11.32l-.51-.27-5.23,2.74c-.49,.26-1.03,.39-1.6,.39h0c-.93,0-1.62-.35-1.7-.39L1.12,11.05l-.51,.27s-1.37,.72,0,1.44l6.02,3.15s1.37,.72,2.75,0l6.02-3.15s1.37-.72,0-1.44Z"/><path class="cls-2" d="M15.39,8.28l-.51-.27-5.23,2.74c-.49,.26-1.03,.39-1.6,.39h0c-.93,0-1.62-.35-1.7-.39L1.12,8.01l-.51,.27s-1.37,.72,0,1.44l6.02,3.15s1.37,.72,2.75,0l6.02-3.15s1.37-.72,0-1.44Z"/><path class="cls-2" d="M7.95,2.77c.54,0,.96,.21,.96,.21h0l5.43,2.84c.12,.06,.12,.23,0,.29l-5.43,2.84c-.26,.14-.55,.21-.86,.21-.54,0-.96-.21-.96-.21h0L1.66,6.11c-.12-.06-.12-.23,0-.29L7.09,2.98c.26-.14,.55-.21,.86-.21m0-1c-.41,0-.86,.08-1.32,.32L.61,5.24s-1.37,.72,0,1.44l6.02,3.15s.61,.32,1.42,.32c.41,0,.86-.08,1.32-.32l6.02-3.15s1.37-.72,0-1.44l-6.02-3.15s-.61-.32-1.42-.32h0Z"/></g></g></g></svg>