<?xml version="1.0" encoding="UTF-8"?><svg id="Layer_2" xmlns="http://www.w3.org/2000/svg" viewBox="0 0 17 17"><defs><style>.cls-1{fill:none;}.cls-2{fill:#787878;}</style></defs><g id="Layer_5"><g><g><rect class="cls-1" width="17" height="17"/><rect class="cls-1" y="1" width="16" height="16"/><path class="cls-2" d="M1.84,3.96v13.04h2.34v-2.24h2.89v2.24h2.34V3.96H1.84Zm2.3,9.63h-1.48v-1.32h1.48v1.32Zm0-1.73h-1.48v-1.32h1.48v1.32Zm0-1.73h-1.48v-1.32h1.48v1.32Zm0-1.73h-1.48v-1.32h1.48v1.32Zm0-1.73h-1.48v-1.32h1.48v1.32Zm2.22,6.93h-1.48v-1.32h1.48v1.32Zm0-1.73h-1.48v-1.32h1.48v1.32Zm0-1.73h-1.48v-1.32h1.48v1.32Zm0-1.73h-1.48v-1.32h1.48v1.32Zm0-1.73h-1.48v-1.32h1.48v1.32Zm2.22,6.93h-1.48v-1.32h1.48v1.32Zm0-1.73h-1.48v-1.32h1.48v1.32Zm0-1.73h-1.48v-1.32h1.48v1.32Zm0-1.73h-1.48v-1.32h1.48v1.32Zm0-1.73h-1.48v-1.32h1.48v1.32Z"/></g><path class="cls-2" d="M6.6,1V3.09h.82v-.72h1.48v.72h.74v-.72h1.48v1.32h-.86v.41h.86v1.32h-.86v.41h.86v1.32h-.86v.41h.86v1.32h-.86v.41h.86v1.32h-.86v1.17h1.56v2.24h2.34V1H6.6Zm6.74,9.63h-1.48v-1.32h1.48v1.32Zm0-1.73h-1.48v-1.32h1.48v1.32Zm0-1.73h-1.48v-1.32h1.48v1.32Zm0-1.73h-1.48v-1.32h1.48v1.32Zm0-1.73h-1.48v-1.32h1.48v1.32Z"/></g></g></svg>