<?xml version="1.0" encoding="UTF-8"?><svg id="Layer_2" xmlns="http://www.w3.org/2000/svg" viewBox="0 0 17 17"><defs><style>.cls-1{fill:none;}.cls-2{fill:#787878;}</style></defs><g id="Layer_5"><g><rect class="cls-1" width="17" height="17"/><rect class="cls-1" y="1.12" width="15.88" height="15.88"/><g id="Group_1612-10"><path id="Path_942-10" class="cls-2" d="M14.1,1.7H1.78c-.23,0-.42,.18-.42,.41,0,0,0,0,0,0v.81c0,.23,.19,.41,.41,.41,0,0,0,0,0,0h.2v6.06c0,.74,.6,1.33,1.33,1.34h3.06l-2.36,5.06c-.1,.22,0,.48,.21,.59,0,0,0,0,0,0,.06,.03,.12,.04,.19,.04,.17,0,.33-.1,.4-.25l2.54-5.43h1.23l3.41,5.48c.13,.21,.4,.27,.61,.14,.21-.13,.27-.4,.14-.61l-3.12-5.02h2.96c.74,0,1.33-.6,1.34-1.34V3.34h.2c.23,0,.42-.18,.42-.41,0,0,0,0,0,0v-.81c0-.23-.18-.42-.41-.42,0,0,0,0,0,0m-1.08,7.7c0,.25-.2,.45-.45,.45H3.31c-.25,0-.45-.2-.45-.45V3.34H13.02v6.06Z"/></g></g></g></svg>