<?xml version="1.0" encoding="UTF-8"?><svg id="Layer_2" xmlns="http://www.w3.org/2000/svg" viewBox="0 0 17 17"><defs><style>.cls-1{fill:none;}.cls-2{fill:#787878;}</style></defs><g id="Layer_5"><g><rect class="cls-1" width="17" height="17"/><rect class="cls-1" y="1" width="16" height="16"/><path class="cls-2" d="M11.41,7.13c-.2,0-.39,.04-.56,.12-.27-.32-.67-.53-1.11-.53-.33,0-.64,.11-.89,.3-.25-.19-.55-.3-.89-.3-.11,0-.22,.01-.33,.04v-1.77c.33-.42,.54-.93,.54-1.51,0-1.37-1.11-2.47-2.47-2.47s-2.47,1.11-2.47,2.47c0,1.04,.64,1.92,1.55,2.29v4.47c-.4,.08-.71,.4-.9,.96-.24,.68-.37,2.14-.17,2.91,.17,.67,1.61,2.87,2.79,2.87h.7c.55,0,1.28,.02,1.91,.02,.52,0,.98,0,1.22-.02,1.5-.08,2.42-2.75,2.42-4.18v-4.22c0-.84-.57-1.44-1.35-1.44Zm.45,5.67c0,1.4-.88,3.25-1.57,3.29-.69,.04-3.25,0-3.78,0s-1.77-1.61-1.92-2.2c-.15-.59-.04-1.85,.15-2.39,.15-.42,.29-.48,.35-.25v1.56c0,.19,.1,.34,.28,.34s.32-.13,.32-.32V5.31c0-.09-.01-.39-.01-.39,0-.3,.25-.55,.55-.55,.25,0,.45,.17,.52,.39v5.74c0,.19,.15,.34,.34,.34s.34-.15,.34-.34v-2.34c0-.3,.25-.55,.55-.55s.55,.25,.55,.55v2.34c0,.19,.15,.34,.34,.34s.34-.15,.34-.34v-2.34c0-.3,.25-.55,.55-.55s.55,.25,.55,.55v2.34c0,.19,.15,.34,.34,.34s.34-.15,.34-.34v-1.93c0-.3,.14-.55,.45-.55s.45,.25,.45,.55v4.22Z"/></g></g></svg>