<?xml version="1.0" encoding="UTF-8"?><svg id="Layer_2" xmlns="http://www.w3.org/2000/svg" viewBox="0 0 17 17"><defs><style>.cls-1{fill:none;}.cls-2{fill:#787878;}</style></defs><g id="Layer_5"><g><rect class="cls-1" width="17" height="17"/><g><rect class="cls-1" x=".09" y="1" width="16" height="16"/><path class="cls-2" d="M15.01,5.54L5.08,3.81c-.28-.05-.56,.02-.78,.19L.73,6.75c-.41,.32-.51,.9-.23,1.34l2.45,3.77c.15,.23,.39,.39,.67,.44l9.94,1.73c.54,.09,1.06-.27,1.16-.82l1.12-6.51c.09-.54-.27-1.06-.81-1.15ZM2.48,8.52c-.42-.07-.7-.47-.63-.88s.47-.7,.88-.63c.42,.07,.7,.47,.62,.88-.07,.42-.47,.7-.88,.62Zm10.43,2.9c-.04,.23-.26,.38-.48,.34l-6.62-1.18c-.23-.04-.38-.26-.34-.48l.11-.6c.04-.23,.26-.38,.48-.34l6.62,1.18c.23,.04,.38,.26,.34,.48l-.11,.6Zm.51-2.85c-.04,.23-.26,.38-.48,.34l-6.62-1.18c-.23-.04-.38-.26-.34-.48l.11-.62c.04-.23,.26-.38,.48-.34l6.62,1.18c.23,.04,.38,.26,.34,.48l-.11,.62Z"/></g></g></g></svg>