<?xml version="1.0" encoding="UTF-8"?><svg id="Layer_2" xmlns="http://www.w3.org/2000/svg" viewBox="0 0 17 17"><defs><style>.cls-1{fill:none;}.cls-2{fill:#808184;}.cls-3{fill:#787878;}</style></defs><g id="Layer_5"><g><polyline class="cls-1" points="17 0 17 17 0 17 0 0"/><g><rect class="cls-1" y="1" width="16" height="16"/><path class="cls-2" d="M15.54,15.73c.88-1-1.03-2.05-1.8-2.53-.77-.48-3.21-2.57-3.96-3.23-.3-.27-.84-.74-1.84-1.61,.02-.15,.02-.29-.02-.44-.16-.75-.36-1.17-.36-1.17,0,0,.56-1.11,2.06-1.35,1.28-.21,1.52-.11,1.52-.11,0,0,.05-.7-1.62-.64-1.66,.06-3.15,.87-4.22,2.22-.74,.93-.77,1.56-.72,1.85l-.54,.63h0c-.4-.34-.99-.3-1.33,.1s-.3,.99,.1,1.33l1.08,.92c.4,.34,.99,.3,1.33-.1s.3-.99-.1-1.33h0s.67-.78,.67-.78c.36,.08,.77,.15,1.1,.1,.06,0,.12-.03,.18-.05,.95,.83,1.45,1.27,1.75,1.53,.75,.66,3.12,2.83,3.7,3.53,.58,.7,1.85,2.47,2.73,1.47,.05-.06,.1-.12,.14-.17,.05-.05,.1-.1,.16-.16Z"/><g><g><rect class="cls-3" y="1.29" width="1.06" height="3.77"/><rect class="cls-3" x="0" y="11.74" width="1.06" height="3.77"/><rect class="cls-3" x="0" y="6.51" width="1.06" height="3.77"/></g><g><rect class="cls-3" x="13.22" y="1.29" width="1.06" height="3.52"/><rect class="cls-3" x="13.22" y="6.11" width="1.06" height="2.38"/></g><g><rect class="cls-3" x="11.86" y="-.06" width="1.07" height="3.77" transform="translate(14.22 -10.57) rotate(90)"/><rect class="cls-3" x="1.35" y="-.06" width="1.07" height="3.77" transform="translate(3.71 -.06) rotate(90)"/><rect class="cls-3" x="6.57" y="-.01" width="1.07" height="3.77" transform="translate(8.98 -5.23) rotate(90)"/></g><g><rect class="cls-3" x="1.35" y="13.09" width="1.07" height="3.77" transform="translate(16.85 13.09) rotate(90)"/><rect class="cls-3" x="6.19" y="13.46" width="1.07" height="3.01" transform="translate(21.7 8.24) rotate(90)"/></g></g></g></g></g></svg>