<?xml version="1.0" encoding="UTF-8"?><svg id="Layer_2" xmlns="http://www.w3.org/2000/svg" viewBox="0 0 17 17"><defs><style>.cls-1{fill:none;}.cls-2{fill:#787878;}</style></defs><g id="Layer_5"><g><rect class="cls-1" width="17" height="17"/><rect class="cls-1" x="0" y="1" width="16" height="16"/><g><path class="cls-2" d="M13.32,11.99H5.9c-.38,0-.68-.31-.68-.68s.31-.68,.68-.68h3.6v-.8h-3.6c-.82,0-1.48,.66-1.48,1.48s.66,1.48,1.48,1.48h7.41c.39,0,.71,.32,.71,.71s-.32,.71-.71,.71H4.35c-.18-.7-.81-1.21-1.56-1.21-.89,0-1.61,.72-1.61,1.61s.72,1.61,1.61,1.61c.75,0,1.38-.52,1.56-1.21H13.32c.83,0,1.51-.68,1.51-1.51s-.68-1.51-1.51-1.51ZM2.79,15.42c-.45,0-.81-.37-.81-.81s.36-.81,.81-.81,.81,.37,.81,.81-.36,.81-.81,.81Z"/><path class="cls-2" d="M9.5,1.79c-1.53,0-2.76,1.24-2.76,2.76,0,2.64,2.76,6.08,2.76,6.08,0,0,2.76-3.44,2.76-6.08,0-1.53-1.24-2.76-2.76-2.76Zm0,4.29c-.82,0-1.49-.67-1.49-1.49s.67-1.49,1.49-1.49,1.49,.67,1.49,1.49-.67,1.49-1.49,1.49Z"/></g></g></g></svg>