<?xml version="1.0" encoding="UTF-8"?><svg id="Layer_2" xmlns="http://www.w3.org/2000/svg" viewBox="0 0 17 17"><defs><style>.cls-1{fill:none;}.cls-2{fill:#787878;}</style></defs><g id="Layer_5"><g><g><rect class="cls-1" y="1" width="16" height="16"/><g><path class="cls-2" d="M8.98,4.59H2.14c-.9,0-1.64,.74-1.64,1.64v5.53c0,.9,.74,1.64,1.64,1.64h6.84c.9,0,1.64-.74,1.64-1.64V6.23c0-.92-.74-1.64-1.64-1.64Z"/><path class="cls-2" d="M14.29,5.5c-.1,.02-.2,.07-.28,.11l-2.56,1.48v3.81l2.58,1.48c.48,.28,1.07,.11,1.35-.36,.08-.15,.13-.31,.13-.49V6.45c0-.61-.57-1.1-1.21-.95Z"/></g></g><rect class="cls-1" width="17" height="17"/></g></g></svg>