<?xml version="1.0" encoding="UTF-8"?><svg id="Layer_2" xmlns="http://www.w3.org/2000/svg" viewBox="0 0 17 17"><defs><style>.cls-1{fill:none;}.cls-2{fill:#787878;}</style></defs><g id="Layer_5"><g><rect class="cls-1" width="17" height="17"/><rect class="cls-1" x="0" y="1" width="16" height="16"/><path class="cls-2" d="M15.39,11.32l-.51-.27-5.23,2.74c-.49,.26-1.03,.39-1.6,.39h0c-.93,0-1.62-.35-1.7-.39L1.12,11.05l-.51,.27s-1.37,.72,0,1.44l6.02,3.15s1.37,.72,2.75,0l6.02-3.15s1.37-.72,0-1.44Z"/><path class="cls-2" d="M15.38,7.63l-1.06,.56,.34,.17c.22,.11,.28,.2,.3,.2-.03,.07-.18,.19-.3,.26l-5.61,2.94c-1.03,.54-2.06,.02-2.1,0L1.34,8.81c-.22-.11-.28-.2-.3-.2,.03-.07,.18-.19,.27-.25l.43-.19-1.09-.57h0c-.26,.18-.62,.52-.62,1,0,.43,.28,.8,.84,1.09l5.61,2.94s.69,.36,1.56,.36c.45,0,.95-.09,1.46-.36l5.61-2.94c.14-.07,.84-.47,.84-1.14,0-.35-.2-.66-.58-.93Z"/><path class="cls-2" d="M9.37,2.09s-1.37-.72-2.75,0L.61,5.24s-1.37,.72,0,1.44l6.02,3.15s1.37,.72,2.75,0l6.02-3.15s1.37-.72,0-1.44l-6.02-3.15Z"/></g></g></svg>