<?xml version="1.0" encoding="UTF-8"?><svg id="Layer_2" xmlns="http://www.w3.org/2000/svg" viewBox="0 0 17 17"><defs><style>.cls-1{fill:none;}.cls-2{fill:#787878;}</style></defs><g id="Layer_5"><g><polyline class="cls-1" points="17 0 17 17 0 17 0 0"/><g><path class="cls-2" d="M15.15,10.57l-2.28-1.32-1,.58,2.03,1.17-5.92,3.43-5.92-3.43,2.03-1.17-1-.58-2.28,1.32c-.15,.09-.25,.25-.25,.43s.1,.34,.25,.43l6.92,4.01c.08,.04,.16,.07,.25,.07s.17-.02,.25-.07l6.92-4.01c.15-.09,.25-.25,.25-.43s-.1-.34-.25-.43Z"/><path class="cls-2" d="M7.99,10.58c-.09,0-.17-.02-.25-.07L.82,6.5c-.15-.09-.25-.25-.25-.43s.1-.34,.25-.43L7.74,1.63c.15-.09,.35-.09,.5,0l6.92,4.01c.15,.09,.25,.25,.25,.43s-.1,.34-.25,.43l-6.92,4.01c-.08,.04-.16,.07-.25,.07ZM2.07,6.07l5.92,3.43,5.92-3.43L7.99,2.64,2.07,6.07Z"/><circle class="cls-2" cx="7.99" cy="14.69" r="1.01"/><circle class="cls-2" cx="1.44" cy="10.9" r="1.01"/><circle class="cls-2" cx="14.54" cy="10.9" r="1.01"/><circle class="cls-2" cx="7.99" cy="10.08" r="1.06"/><circle class="cls-2" cx="7.99" cy="2.06" r="1.06"/><circle class="cls-2" cx="1.44" cy="6.23" r="1.01"/><circle class="cls-2" cx="14.9" cy="6.07" r="1.06"/><rect class="cls-1" y="1.03" width="15.97" height="15.97"/></g></g></g></svg>