<svg id="Group_1412" data-name="Group 1412" xmlns="http://www.w3.org/2000/svg" xmlns:xlink="http://www.w3.org/1999/xlink" width="32" height="32" viewBox="0 0 32 32">
  <defs>
    <clipPath id="clip-path">
      <rect id="Rectangle_687" data-name="Rectangle 687" width="32" height="32" fill="none"/>
    </clipPath>
  </defs>
  <g id="Group_1411" data-name="Group 1411" clip-path="url(#clip-path)">
    <path id="Path_824" data-name="Path 824" d="M5.325,18.325,3.991,19.1A1.335,1.335,0,0,0,3.5,20.92l1.985,3.439a1.333,1.333,0,0,0,1.822.488l1.351-.776a2.65,2.65,0,0,1,2.649,0l.027.015a2.653,2.653,0,0,1,1.334,2.3v1.621a1.334,1.334,0,0,0,1.334,1.334h4a1.334,1.334,0,0,0,1.334-1.334V26.381a2.647,2.647,0,0,1,1.328-2.3l.028-.016a2.645,2.645,0,0,1,2.649,0l1.345.776a1.334,1.334,0,0,0,1.822-.488l1.985-3.44A1.334,1.334,0,0,0,28,19.1l-1.334-.772a2.657,2.657,0,0,1-1.334-2.312v-.028a2.654,2.654,0,0,1,1.334-2.311L28,12.9a1.334,1.334,0,0,0,.488-1.822L26.5,7.64a1.334,1.334,0,0,0-1.822-.488l-1.348.777a2.65,2.65,0,0,1-2.649,0l-.019-.014a2.654,2.654,0,0,1-1.334-2.3V3.993A1.334,1.334,0,0,0,18,2.659H14a1.334,1.334,0,0,0-1.334,1.334V5.719a2.475,2.475,0,0,1-1.241,2.143l-.2.117a2.475,2.475,0,0,1-2.472,0L7.313,7.152a1.334,1.334,0,0,0-1.822.488L3.506,11.08A1.333,1.333,0,0,0,3.991,12.9l1.334.772a2.657,2.657,0,0,1,1.334,2.312v.028A2.654,2.654,0,0,1,5.325,18.325ZM16,8.821A7.178,7.178,0,1,1,8.819,16,7.179,7.179,0,0,1,16,8.821" fill="#fff"/>
    <path id="Path_825" data-name="Path 825" d="M16,5.917A10.083,10.083,0,1,0,26.083,16,10.083,10.083,0,0,0,16,5.917M16,23.1A7.1,7.1,0,1,1,23.1,16,7.1,7.1,0,0,1,16,23.1" fill="#fff"/>
  </g>
</svg>
