<svg id="Group_1427" data-name="Group 1427" xmlns="http://www.w3.org/2000/svg" xmlns:xlink="http://www.w3.org/1999/xlink" width="16" height="16" viewBox="0 0 16 16">
  <defs>
    <clipPath id="clip-path">
      <rect id="Rectangle_693" data-name="Rectangle 693" width="16" height="16" fill="#787878"/>
    </clipPath>
  </defs>
  <g id="Group_1427-2" data-name="Group 1427" clip-path="url(#clip-path)">
    <path id="Path_834" data-name="Path 834" d="M12.551,14.014h-.566V12.872a5.333,5.333,0,0,0-1.922-3.911A8.975,8.975,0,0,0,8.8,8a8.915,8.915,0,0,0,1.259-.962,5.332,5.332,0,0,0,1.922-3.911V1.985h.566a.4.4,0,1,0,0-.8h-9.1a.4.4,0,0,0,0,.8h.566V3.127A5.36,5.36,0,0,0,5.937,7.038,8.915,8.915,0,0,0,7.2,8a8.975,8.975,0,0,0-1.259.961,5.337,5.337,0,0,0-1.922,3.911v1.142H3.449a.4.4,0,0,0,0,.8h9.1a.4.4,0,0,0,0-.8M11.187,3.127A3.771,3.771,0,0,1,10.93,4.49H5.07a3.771,3.771,0,0,1-.257-1.363V1.985h6.374ZM8,8.451c1.653.916,3.187,2.5,3.187,4.421v.577l-.967-1.031a3.073,3.073,0,0,0-4.481,0l-.926.987v-.533C4.813,10.958,6.337,9.372,8,8.451Z" fill="#787878"/>
  </g>
</svg>
