<svg xmlns="http://www.w3.org/2000/svg" width="41.086" height="34.368" viewBox="0 0 41.086 34.368">
  <g id="Group_1478" data-name="Group 1478" transform="translate(-747.723 -1028)">
    <g id="Group_1477" data-name="Group 1477" transform="translate(1397.213 1478.281)">
      <path id="Path_41" data-name="Path 41" d="M79.047,75.059H44.683A3.365,3.365,0,0,1,41.322,71.7V51.08a3.365,3.365,0,0,1,3.361-3.361H79.047a3.365,3.365,0,0,1,3.361,3.361V71.7a3.365,3.365,0,0,1-3.361,3.361M44.683,49.319a1.763,1.763,0,0,0-1.761,1.761V71.7a1.763,1.763,0,0,0,1.761,1.761H79.047A1.763,1.763,0,0,0,80.808,71.7V51.08a1.763,1.763,0,0,0-1.761-1.761Z" transform="translate(-690.813 -498)"/>
      <rect id="Rectangle_7" data-name="Rectangle 7" width="8.221" height="4.265" transform="translate(-633.058 -423.741)"/>
      <rect id="Rectangle_8" data-name="Rectangle 8" width="20.753" height="3.564" transform="translate(-639.323 -419.476)"/>
      <path id="Path_42" data-name="Path 42" d="M64.71,59.572,56.7,54.833a1.087,1.087,0,0,0-1.648.941v9.474a1.091,1.091,0,0,0,1.648.938l8.015-4.734a1.093,1.093,0,0,0,0-1.881Z" transform="translate(-689.094 -497.129)"/>
    </g>
  </g>
</svg>
