<?xml version="1.0" encoding="UTF-8"?>
<!-- Generated by Pixelmator Pro 3.2.3 -->
<svg width="44" height="38" viewBox="0 0 44 38" xmlns="http://www.w3.org/2000/svg" xmlns:xlink="http://www.w3.org/1999/xlink">
    <g id="Group1491">
        <g id="Group1479">
            <g id="Group1478">
                <path id="Rectangle5" fill="none" stroke="#787878" stroke-linecap="round" stroke-linejoin="round" d="M 7.742 5.073002 L 39.644001 5.073002 C 41.108105 5.073002 42.294998 6.259893 42.294998 7.724001 L 42.294998 29.76 C 42.294998 31.224108 41.108105 32.410999 39.644001 32.410999 L 7.742 32.410999 C 6.277893 32.410999 5.091 31.224108 5.091 29.76 L 5.091 7.724001 C 5.091 6.259893 6.277893 5.073002 7.742 5.073002 Z"/>
                <path id="Path37" fill="#787878" stroke="#787878" stroke-linecap="round" stroke-linejoin="round" d="M 38.144005 29.173 L 9.243997 29.173 C 8.723001 29.173 8.299996 28.605 8.299996 27.903999 L 8.299996 24.303999 C 8.299996 23.604 8.723001 23.035999 9.243997 23.035999 L 38.144005 23.035999 C 38.664986 23.035999 39.08799 23.603001 39.08799 24.303999 L 39.08799 27.903999 C 39.08799 28.604 38.664986 29.173 38.144005 29.173"/>
            </g>
            <path id="Line201" fill="none" stroke="#787878" stroke-width="3" stroke-linecap="round" stroke-linejoin="round" d="M 2.115 1.599998 L 42.295002 35.884998"/>
        </g>
    </g>
</svg>
