<?xml version="1.0" encoding="UTF-8"?>
<!-- Generated by Pixelmator Pro 3.2.3 -->
<svg width="24" height="24" viewBox="0 0 24 24" xmlns="http://www.w3.org/2000/svg" xmlns:xlink="http://www.w3.org/1999/xlink">
    <path id="Iconawesome-forward" fill="#787878" stroke="none" d="M 20.775 11.305 L 13.956 5.623001 C 13.616774 5.341314 13.145356 5.280941 12.746093 5.46805 C 12.346828 5.655157 12.091584 6.056068 12.091 6.497 L 12.091 17.860001 C 12.090757 18.301315 12.345907 18.702908 12.745518 18.890179 C 13.145128 19.07745 13.617008 19.016567 13.956 18.734001 L 20.775 13.052001 C 21.033287 12.835398 21.182472 12.515591 21.182472 12.1785 C 21.182472 11.841411 21.033287 11.521604 20.775 11.305 Z M 11.683 11.305 L 4.865 5.623001 C 4.525913 5.341429 4.054727 5.280979 3.655544 5.467836 C 3.256361 5.654692 3.000971 6.05525 3 6.496 L 3 17.860001 C 2.999758 18.301315 3.254907 18.702908 3.654517 18.890179 C 4.054128 19.07745 4.526008 19.016567 4.865 18.734001 L 11.684 13.052001 C 11.942287 12.835398 12.091472 12.515591 12.091472 12.1785 C 12.091472 11.841411 11.942287 11.521604 11.684 11.305 Z"/>
</svg>
