<?xml version="1.0" encoding="UTF-8"?>
<!-- Generated by Pixelmator Pro 3.2.3 -->
<svg width="33" height="47" viewBox="0 0 33 47" xmlns="http://www.w3.org/2000/svg" xmlns:xlink="http://www.w3.org/1999/xlink">
    <g id="Group1481">
        <path id="Path39" fill="#787878" stroke="#787878" stroke-linecap="round" stroke-linejoin="round" d="M 21.730001 16.206999 L 27.042 23.407003 L 32.355999 16.206999 Z"/>
        <path id="Path40" fill="#787878" stroke="#787878" stroke-linecap="round" stroke-linejoin="round" d="M 26.012001 30.993 L 26.012001 32.660999 C 26.050938 36.878429 23.82329 40.792255 20.177242 42.912296 C 16.531195 45.03233 12.027806 45.03233 8.381759 42.912296 C 4.73571 40.792255 2.508064 36.878429 2.547 32.660999 L 2.547 13.569 C 2.508064 9.351574 4.73571 5.43774 8.381759 3.317707 C 12.027806 1.197674 16.531195 1.197674 20.177242 3.317707 C 23.82329 5.43774 26.050938 9.351574 26.012001 13.569 L 26.012001 17.847004 L 28.060001 17.847004 L 28.060001 13.569 C 28.060001 5.957966 21.890038 -0.211998 14.279 -0.211998 C 6.667964 -0.211998 0.498 5.957966 0.498 13.569 L 0.498 32.660999 C 0.498 40.272038 6.667964 46.441998 14.279 46.441998 C 21.890038 46.441998 28.060001 40.272038 28.060001 32.660999 L 28.060001 30.993 Z"/>
    </g>
</svg>
