<?xml version="1.0" encoding="UTF-8"?>
<!-- Generated by Pixelmator Pro 3.2.3 -->
<svg width="30" height="35" viewBox="0 0 30 35" xmlns="http://www.w3.org/2000/svg" xmlns:xlink="http://www.w3.org/1999/xlink">
    <g id="Group1484">
        <path id="Path43" fill="#787878" stroke="none" d="M 10.620003 4.337 C 10.620407 6.484877 9.326813 8.421465 7.342515 9.243608 C 5.358208 10.065752 3.074044 9.611513 1.55526 8.092737 C 0.036484 6.573957 -0.417755 4.289789 0.404389 2.305492 C 1.226532 0.32119 3.163125 -0.972404 5.310997 -0.972 C 8.24308 -0.972 10.620003 1.404922 10.620003 4.337"/>
        <path id="Path44" fill="#787878" stroke="none" d="M 30.819998 29.692001 C 30.820402 31.839874 29.526815 33.776466 27.542509 34.59861 C 25.55821 35.420753 23.274038 34.966515 21.755262 33.447739 C 20.236486 31.928963 19.782248 29.644791 20.604391 27.660492 C 21.426535 25.676186 23.363127 24.382599 25.511 24.383003 C 28.443083 24.383003 30.819998 26.759918 30.819998 29.692001"/>
        <path id="Path45" fill="#787878" stroke="none" d="M 24.161999 26.624996 L 24.049 25.997997 C 23.364002 22.129002 22.716999 18.476002 13.186001 18.476002 C 10.871181 18.571186 8.633846 17.632427 7.079998 15.913998 C 3.679997 12.096001 4.425999 5.389 4.459004 5.108002 L 7.182003 5.422001 C 7.175 5.481998 6.552998 11.203999 9.132 14.096996 C 10.169666 15.222111 11.657017 15.822857 13.185001 15.733997 C 25.012997 15.733997 26.016003 21.390003 26.746998 25.52 L 26.856998 26.119999 Z"/>
    </g>
</svg>
