<?xml version="1.0" encoding="UTF-8"?>
<!-- Generated by Pixelmator Pro 3.2.3 -->
<svg width="40" height="30" viewBox="0 0 40 30" xmlns="http://www.w3.org/2000/svg" xmlns:xlink="http://www.w3.org/1999/xlink">
    <g id="Group1477">
        <path id="Rectangle5" fill="none" stroke="#787878" stroke-width="1.7" stroke-linecap="round" stroke-linejoin="round" d="M 3.501 0.290001 L 37.473999 0.290001 C 38.938107 0.290001 40.125 1.476892 40.125 2.941 L 40.125 26.499001 C 40.125 27.963108 38.938107 29.150002 37.473999 29.150002 L 3.501 29.150002 C 2.036893 29.150002 0.85 27.963108 0.85 26.499001 L 0.85 2.941 C 0.85 1.476892 2.036893 0.290001 3.501 0.290001 Z"/>
        <path id="Path37" fill="#787878" stroke="none" d="M 35.744007 25.732 L 5.232 25.732 C 4.681005 25.732 4.232 25.132 4.232 24.392 L 4.232 20.592001 C 4.232 19.852001 4.677999 19.254 5.232 19.254 L 35.744007 19.254 C 36.293995 19.254 36.744007 19.854 36.744007 20.592001 L 36.744007 24.392 C 36.744007 25.132 36.297993 25.732 35.744007 25.732"/>
    </g>
</svg>
