<svg xmlns="http://www.w3.org/2000/svg" xmlns:xlink="http://www.w3.org/1999/xlink" width="23.053" height="24.628" viewBox="0 0 23.053 24.628">
  <defs>
    <clipPath id="clip-path">
      <rect id="Rectangle_704" data-name="Rectangle 704" width="23.053" height="24.628" fill="#fff"/>
    </clipPath>
  </defs>
  <g id="Group_1508" data-name="Group 1508" transform="translate(0 0)">
    <g id="Group_1507" data-name="Group 1507" transform="translate(0 0)" clip-path="url(#clip-path)">
      <path id="Path_870" data-name="Path 870" d="M5.468,7.839,4.243,6.606l2.29-3.363a.788.788,0,0,1,1.3,0l2.281,3.345L8.84,7.866c-.116.116-.2.116-.311,0l-.621-.621a1.053,1.053,0,0,0-.755-.311,1.022,1.022,0,0,0-.754.311l-.595.594a.247.247,0,0,1-.337,0" transform="translate(-0.855 -0.583)" fill="#fff"/>
      <path id="Path_871" data-name="Path 871" d="M6.977,13.45a1.352,1.352,0,0,0,.194.281H.791a.794.794,0,0,1-.648-1.242L2.874,8.472,3.987,9.584a1.169,1.169,0,0,0,1.6,0L6.178,9a.169.169,0,0,1,.248,0l.616.615a1.15,1.15,0,0,0,.788.324,1.105,1.105,0,0,0,.778-.324l.065-.065-1.6,2.343a1.5,1.5,0,0,0-.1,1.555" transform="translate(0 -1.706)" fill="#fff"/>
      <path id="Path_872" data-name="Path 872" d="M21.879,4.492,20.324,6.047c-.141.141-.248.141-.378,0l-.756-.755a1.278,1.278,0,0,0-.918-.379,1.243,1.243,0,0,0-.918.379l-.724.723a.3.3,0,0,1-.41,0l-1.49-1.5L17.517.422a.958.958,0,0,1,1.587,0Z" transform="translate(-2.967 0)" fill="#fff"/>
      <path id="Path_873" data-name="Path 873" d="M24.014,13.171H10.528a.965.965,0,0,1-.788-1.512l2.408-3.531.918-1.35,1.35,1.35a1.409,1.409,0,0,0,1.944,0l.724-.713a.208.208,0,0,1,.3,0l.756.756a1.366,1.366,0,0,0,.95.389,1.349,1.349,0,0,0,.95-.389l1.425-1.425,3.348,4.913a.97.97,0,0,1-.8,1.512" transform="translate(-1.927 -1.359)" fill="#fff"/>
      <path id="Path_874" data-name="Path 874" d="M20.086,23.159c0,1.1-.648,1.986-1.449,1.986s-1.449-.889-1.449-1.986.648-1.986,1.449-1.986,1.449.889,1.449,1.986" transform="translate(-3.462 -4.265)" fill="#fff"/>
      <path id="Path_875" data-name="Path 875" d="M19.47,27.947c-2.055,0-3.728-1.353-3.728-3.015V19.5c0-1.663,1.673-3.016,3.728-3.016S23.2,17.835,23.2,19.5v5.434c0,1.663-1.672,3.015-3.729,3.015m0-10.592A2.437,2.437,0,0,0,16.822,19.5v5.434a2.438,2.438,0,0,0,2.647,2.143,2.44,2.44,0,0,0,2.649-2.143V19.5a2.439,2.439,0,0,0-2.649-2.143" transform="translate(-3.171 -3.32)" fill="#fff"/>
      <path id="Path_876" data-name="Path 876" d="M7.515,27.947c-2.055,0-3.728-1.353-3.728-3.015V19.5c0-1.663,1.673-3.016,3.728-3.016s3.729,1.353,3.729,3.016v5.434c0,1.663-1.672,3.015-3.729,3.015m0-10.592A2.437,2.437,0,0,0,4.867,19.5v5.434a2.438,2.438,0,0,0,2.647,2.143,2.44,2.44,0,0,0,2.649-2.143V19.5a2.439,2.439,0,0,0-2.649-2.143" transform="translate(-0.763 -3.32)" fill="#fff"/>
      <path id="Path_877" data-name="Path 877" d="M8.131,23.159c0,1.1-.648,1.986-1.449,1.986s-1.449-.889-1.449-1.986.648-1.986,1.449-1.986,1.449.889,1.449,1.986" transform="translate(-1.054 -4.265)" fill="#fff"/>
    </g>
  </g>
</svg>
