<svg id="Group_1408" data-name="Group 1408" xmlns="http://www.w3.org/2000/svg" xmlns:xlink="http://www.w3.org/1999/xlink" width="32" height="32" viewBox="0 0 32 32">
  <defs>
    <clipPath id="clip-path">
      <rect id="Rectangle_685" data-name="Rectangle 685" width="32" height="32" fill="none"/>
    </clipPath>
  </defs>
  <g id="Group_1407" data-name="Group 1407" clip-path="url(#clip-path)">
    <path id="Path_814" data-name="Path 814" d="M15.757,26.346v3.211a13.583,13.583,0,0,0,7.019-2.917l-2.248-2.249a10.394,10.394,0,0,1-4.771,1.955" fill="#fff"/>
    <path id="Path_815" data-name="Path 815" d="M8.028,24.351,5.739,26.64a13.583,13.583,0,0,0,7.019,2.917V26.331a10.393,10.393,0,0,1-4.73-1.98" fill="#fff"/>
    <path id="Path_816" data-name="Path 816" d="M3.966,17.5H.7a13.578,13.578,0,0,0,2.917,7.02l2.3-2.3A10.388,10.388,0,0,1,3.966,17.5" fill="#fff"/>
    <path id="Path_817" data-name="Path 817" d="M5.913,9.777l-2.3-2.3A13.566,13.566,0,0,0,.7,14.5H3.966A10.377,10.377,0,0,1,5.913,9.777" fill="#fff"/>
    <path id="Path_818" data-name="Path 818" d="M12.757,5.668V2.443A13.574,13.574,0,0,0,5.738,5.359L8.027,7.648a10.4,10.4,0,0,1,4.73-1.98" fill="#fff"/>
    <path id="Path_819" data-name="Path 819" d="M20.528,7.608l2.249-2.249a13.577,13.577,0,0,0-7.019-2.916V5.654a10.378,10.378,0,0,1,4.77,1.954" fill="#fff"/>
    <path id="Path_820" data-name="Path 820" d="M30.709,19.46l-3.9-2.915L26.1,16v2.146a2.874,2.874,0,0,1-1.56-.633L23.049,19.6A5.676,5.676,0,0,0,26.1,20.74v2.179Z" fill="#fff"/>
    <path id="Path_821" data-name="Path 821" d="M16.38,11.243H11.035v2.6H16.38a3.7,3.7,0,0,1,2.826,1.222l1.437-2.273a5.422,5.422,0,0,0-4.263-1.544" fill="#fff"/>
    <path id="Path_822" data-name="Path 822" d="M30.709,12.541,26.1,9.081v2.178a5.544,5.544,0,0,0-4.373,2.777l-.316.508c-1.094,1.779-2.255,3.619-5.026,3.619H11.036v2.594h5.345c4.273,0,6.1-2.939,7.284-4.884l.29-.47A3,3,0,0,1,26.1,13.868V16Z" fill="#fff"/>
  </g>
</svg>
