<svg xmlns="http://www.w3.org/2000/svg" width="25" height="25" viewBox="0 0 25 25">
  <g id="Group_21" data-name="Group 21" transform="translate(1035.7 -272.5)">
    <g id="Icon_ionic-ios-checkbox-outline" data-name="Icon ionic-ios-checkbox-outline" transform="translate(-1035.7 272.5)">
      <path id="Path_3" data-name="Path 3" d="M27.417,4.5H6.583A2.081,2.081,0,0,0,4.5,6.583V27.417A2.081,2.081,0,0,0,6.583,29.5H27.417A2.081,2.081,0,0,0,29.5,27.417V6.583A2.081,2.081,0,0,0,27.417,4.5Zm.26,22.656a.522.522,0,0,1-.521.521H6.844a.522.522,0,0,1-.521-.521V6.844a.522.522,0,0,1,.521-.521H27.156a.522.522,0,0,1,.521.521Z" transform="translate(-4.5 -4.5)" fill="#fff"/>
      <path id="Path_4" data-name="Path 4" d="M23.576,13.563,22.5,12.291a.218.218,0,0,0-.171-.084h0a.209.209,0,0,0-.171.084l-7.445,8.641-2.71-3.122a.215.215,0,0,0-.342,0l-1.086,1.252a.311.311,0,0,0,0,.4L14,23.4a1.03,1.03,0,0,0,.714.4,1.085,1.085,0,0,0,.708-.387h.006l8.159-9.45A.335.335,0,0,0,23.576,13.563Z" transform="translate(-4.5 -5.5)" fill="#fff"/>
    </g>
  </g>
</svg>
