<svg xmlns="http://www.w3.org/2000/svg" width="25" height="25" viewBox="0 0 25 25">
  <g id="Group_1475" data-name="Group 1475" transform="translate(1035.7 -272.5)">
    <g id="Icon_ionic-ios-checkbox-outline" data-name="Icon ionic-ios-checkbox-outline" transform="translate(-1035.7 272.5)">
      <path id="Path_3" data-name="Path 3" d="M27.417,4.5H6.583A2.081,2.081,0,0,0,4.5,6.583V27.417A2.081,2.081,0,0,0,6.583,29.5H27.417A2.081,2.081,0,0,0,29.5,27.417V6.583A2.081,2.081,0,0,0,27.417,4.5Zm.26,22.656a.522.522,0,0,1-.521.521H6.844a.522.522,0,0,1-.521-.521V6.844a.522.522,0,0,1,.521-.521H27.156a.522.522,0,0,1,.521.521Z" transform="translate(-4.5 -4.5)" fill="#fff"/>
    </g>
  </g>
</svg>
