<svg xmlns="http://www.w3.org/2000/svg" width="25.07" height="20.971" viewBox="0 0 25.07 20.971">
  <g id="Group_1482" data-name="Group 1482" transform="translate(649.49 450.281)">
    <path id="Path_41" data-name="Path 41" d="M64.341,64.4H43.373a2.053,2.053,0,0,1-2.051-2.051V49.77a2.053,2.053,0,0,1,2.051-2.051H64.341a2.053,2.053,0,0,1,2.051,2.051V62.351A2.053,2.053,0,0,1,64.341,64.4M43.373,48.7A1.076,1.076,0,0,0,42.3,49.77V62.351a1.076,1.076,0,0,0,1.074,1.074H64.341a1.076,1.076,0,0,0,1.074-1.074V49.77A1.076,1.076,0,0,0,64.341,48.7Z" transform="translate(-690.813 -498)" fill="#fff"/>
    <rect id="Rectangle_7" data-name="Rectangle 7" width="5.016" height="2.602" transform="translate(-639.464 -434.087)" fill="#fff"/>
    <rect id="Rectangle_8" data-name="Rectangle 8" width="12.663" height="2.174" transform="translate(-643.286 -431.484)" fill="#fff"/>
    <path id="Path_42" data-name="Path 42" d="M60.943,57.664l-4.89-2.891a.663.663,0,0,0-1.006.574v5.781a.666.666,0,0,0,1.006.573l4.89-2.888a.667.667,0,0,0,0-1.148Z" transform="translate(-695.114 -500.181)" fill="#fff"/>
  </g>
</svg>
