<svg id="Group_1529" data-name="Group 1529" xmlns="http://www.w3.org/2000/svg" xmlns:xlink="http://www.w3.org/1999/xlink" width="32" height="32" viewBox="0 0 32 32">
  <defs>
    <clipPath id="clip-path">
      <rect id="Rectangle_686" data-name="Rectangle 686" width="32" height="32" fill="none"/>
    </clipPath>
  </defs>
  <g id="Group_1409" data-name="Group 1409" clip-path="url(#clip-path)">
    <path id="Path_823" data-name="Path 823" d="M25.1,28.03H23.97V25.745a10.668,10.668,0,0,0-3.844-7.822A17.968,17.968,0,0,0,17.608,16a17.814,17.814,0,0,0,2.518-1.923A10.665,10.665,0,0,0,23.97,6.256V3.971H25.1a.8.8,0,1,0,0-1.6H6.9a.8.8,0,1,0,0,1.6H8.03V6.256a10.72,10.72,0,0,0,3.844,7.821A17.814,17.814,0,0,0,14.392,16a17.968,17.968,0,0,0-2.518,1.923A10.668,10.668,0,0,0,8.03,25.745V28.03H6.9a.8.8,0,1,0,0,1.6H25.1a.8.8,0,1,0,0-1.6M22.373,6.256A7.514,7.514,0,0,1,21.86,8.98H10.141a7.494,7.494,0,0,1-.514-2.724V3.971H22.373ZM16,16.9c3.307,1.831,6.373,5,6.373,8.842V26.9l-1.934-2.061a6.085,6.085,0,0,0-4.48-1.94h0a6.085,6.085,0,0,0-4.481,1.94L9.627,26.81V25.745C9.627,21.918,12.674,18.745,16,16.9Z" fill="#fff"/>
  </g>
</svg>
