<svg xmlns="http://www.w3.org/2000/svg" width="18.732" height="21.865" viewBox="0 0 18.732 21.865">
  <g id="Group_1484" data-name="Group 1484" transform="translate(594.411 444.851)">
    <path id="Path_43" data-name="Path 43" d="M102.857,56.376a3.227,3.227,0,1,1-3.227-3.227,3.227,3.227,0,0,1,3.227,3.227" transform="translate(-690.813 -498)" fill="#fff"/>
    <path id="Path_44" data-name="Path 44" d="M113.91,70.25a3.227,3.227,0,1,1-3.227-3.227,3.227,3.227,0,0,1,3.227,3.227" transform="translate(-689.588 -496.463)" fill="#fff"/>
    <path id="Path_45" data-name="Path 45" d="M110.823,69.555l-.069-.381c-.417-2.352-.81-4.572-6.6-4.572a4.741,4.741,0,0,1-3.711-1.557c-2.064-2.32-1.613-6.4-1.593-6.568l1.655.191c0,.037-.382,3.515,1.185,5.273a3.106,3.106,0,0,0,2.464,1c7.189,0,7.8,3.438,8.243,5.948l.067.368Z" transform="translate(-690.548 -497.631)" fill="#fff"/>
  </g>
</svg>
